<svg xmlns="http://www.w3.org/2000/svg" viewBox="0 0 520 440" fill="none" role="img" aria-label="">
  <defs>
    <radialGradient id="bgglow" cx="48%" cy="44%" r="62%">
      <stop offset="0%" stop-color="#C9A961" stop-opacity="0.16"/>
      <stop offset="55%" stop-color="#C9A961" stop-opacity="0.05"/>
      <stop offset="100%" stop-color="#C9A961" stop-opacity="0"/>
    </radialGradient>
    <filter id="glow" x="-25%" y="-25%" width="150%" height="150%">
      <feGaussianBlur stdDeviation="2.2" result="b"/>
      <feMerge><feMergeNode in="b"/><feMergeNode in="SourceGraphic"/></feMerge>
    </filter>
    <path id="glint" d="M0,-6 L1.1,-1.1 L6,0 L1.1,1.1 L0,6 L-1.1,1.1 L-6,0 L-1.1,-1.1 Z" fill="#F0DCAE"/>
  </defs>

  <rect x="0" y="0" width="520" height="440" fill="url(#bgglow)"/>

  <g stroke="#C9A961" stroke-width="1" vector-effect="non-scaling-stroke">
    <g opacity="0.05">
      <path d="M40 0 V440 M80 0 V440 M120 0 V440 M160 0 V440 M200 0 V440 M240 0 V440 M280 0 V440 M320 0 V440 M360 0 V440 M400 0 V440 M440 0 V440 M480 0 V440"/>
      <path d="M0 40 H520 M0 80 H520 M0 120 H520 M0 160 H520 M0 200 H520 M0 240 H520 M0 280 H520 M0 320 H520 M0 360 H520 M0 400 H520"/>
    </g>
    <g opacity="0.03">
      <path d="M20 0 V440 M60 0 V440 M100 0 V440 M140 0 V440 M180 0 V440 M220 0 V440 M260 0 V440 M300 0 V440 M340 0 V440 M380 0 V440 M420 0 V440 M460 0 V440 M500 0 V440"/>
      <path d="M0 20 H520 M0 60 H520 M0 100 H520 M0 140 H520 M0 180 H520 M0 220 H520 M0 260 H520 M0 300 H520 M0 340 H520 M0 380 H520 M0 420 H520"/>
    </g>
  </g>

  <g stroke="#C9A961" stroke-width="1.4" opacity="0.5" vector-effect="non-scaling-stroke">
    <path d="M28 20 V36 M20 28 H36"/><path d="M492 20 V36 M484 28 H500"/>
    <path d="M28 404 V420 M20 412 H36"/><path d="M492 404 V420 M484 412 H500"/>
  </g>

  <g stroke="#C9A961" stroke-width="1.4" opacity="0.45" vector-effect="non-scaling-stroke">
    <path d="M40 388 V150"/><path d="M36 154 L40 146 L44 154"/><path d="M36 384 L40 392 L44 384"/>
  </g>

  <line x1="260" y1="24" x2="260" y2="416" stroke="#C9A961" stroke-width="1" stroke-dasharray="14 6 2 6" opacity="0.22" vector-effect="non-scaling-stroke"/>

  <g stroke-linecap="round" stroke-linejoin="round" vector-effect="non-scaling-stroke">
    <!-- secondaries -->
    <g filter="url(#glow)">
      <path d="M137.0 228.5 L131.6 231.8 L128.9 235.7 L126.5 239.6 L123.9 243.3 L122.0 247.2 L119.9 251.1 L117.5 254.7 L115.4 258.5 L113.7 262.5 L112.3 266.5 L110.3 270.3 L108.9 274.4 L107.4 278.5 L105.6 282.4 L104.1 286.6 L102.8 290.9 L101.6 295.3 L100.3 299.8 L101.2 306.0 L108.8 305.8 L113.1 303.1 L117.5 300.4 L121.3 297.1 L124.9 293.7 L127.8 289.8 L130.6 285.8 L133.1 281.7 L135.4 277.4 L137.8 273.2 L139.7 268.7 L140.5 263.8 L142.1 259.2 L142.5 254.3 L143.2 249.5 L143.0 244.4 L142.6 239.4 L141.2 234.2 L137.0 228.5 Z" fill="#1D1512" stroke="#C9A961" stroke-width="1.9"/>
      <path d="M137.0 228.5 L135.9 232.9 L134.8 237.3 L133.6 241.6 L132.2 246.0 L130.8 250.3 L129.3 254.5 L127.7 258.8 L126.0 262.9 L124.2 267.1 L122.3 271.2 L120.3 275.3 L118.3 279.3 L116.1 283.3 L113.9 287.2 L111.5 291.1 L109.1 294.9 L106.6 298.7 L104.0 302.4 L101.4 306.1" fill="none" stroke="#C9A961" stroke-width="0.9" opacity="0.4"/>
      <path d="M154.8 212.7 L149.8 216.6 L146.5 220.7 L143.9 224.9 L141.4 229.0 L139.8 233.4 L137.0 237.4 L134.9 241.5 L133.5 246.0 L131.1 250.0 L129.7 254.4 L127.3 258.4 L126.1 263.0 L124.4 267.3 L122.4 271.5 L121.0 276.1 L119.7 280.8 L118.4 285.6 L117.3 290.6 L117.9 297.0 L125.1 295.9 L130.1 293.3 L134.4 290.0 L138.2 286.3 L141.6 282.4 L144.8 278.3 L147.9 274.1 L151.0 269.8 L153.1 265.0 L155.2 260.3 L157.2 255.5 L158.5 250.4 L159.7 245.3 L160.3 240.1 L161.1 235.0 L160.8 229.6 L160.3 224.2 L158.8 218.7 L154.6 212.7 Z" fill="#1D1512" stroke="#C9A961" stroke-width="1.9"/>
      <path d="M154.8 212.7 L153.8 217.5 L152.6 222.2 L151.4 226.9 L150.0 231.6 L148.5 236.3 L147.0 240.9 L145.3 245.5 L143.5 250.0 L141.7 254.5 L139.7 259.0 L137.7 263.4 L135.5 267.7 L133.2 272.1 L130.9 276.3 L128.4 280.5 L125.9 284.7 L123.3 288.8 L120.6 292.9 L117.8 296.8" fill="none" stroke="#C9A961" stroke-width="0.9" opacity="0.4"/>
      <path d="M174.3 198.6 L169.2 202.8 L166.3 207.4 L163.3 211.9 L161.3 216.6 L159.0 221.1 L156.4 225.5 L154.6 230.2 L152.6 234.8 L150.6 239.3 L148.5 243.8 L146.3 248.3 L144.7 253.0 L143.2 257.8 L141.0 262.3 L139.7 267.4 L137.9 272.1 L136.7 277.4 L135.1 282.4 L136.0 289.3 L143.5 288.0 L148.7 285.0 L153.2 281.4 L156.8 277.2 L160.9 273.2 L163.9 268.5 L167.4 264.1 L169.9 259.2 L172.4 254.2 L174.6 249.2 L176.5 243.9 L177.6 238.4 L179.0 233.1 L179.7 227.5 L180.7 222.1 L180.4 216.4 L179.8 210.6 L178.9 204.9 L174.5 198.6 Z" fill="#1D1512" stroke="#C9A961" stroke-width="1.9"/>
      <path d="M174.3 198.6 L173.2 203.7 L172.1 208.8 L170.8 213.8 L169.4 218.9 L167.9 223.9 L166.3 228.8 L164.6 233.8 L162.8 238.7 L160.9 243.5 L158.8 248.3 L156.7 253.1 L154.4 257.8 L152.1 262.4 L149.7 267.1 L147.1 271.6 L144.5 276.1 L141.7 280.5 L138.9 284.9 L135.9 289.2" fill="none" stroke="#C9A961" stroke-width="0.9" opacity="0.4"/>
      <path d="M195.1 186.0 L190.1 190.7 L187.1 195.6 L184.3 200.5 L182.1 205.5 L179.8 210.4 L177.3 215.2 L175.1 220.1 L172.8 224.9 L171.3 230.1 L169.0 234.9 L167.3 239.9 L165.1 244.8 L163.4 249.9 L161.2 254.8 L159.6 260.0 L158.3 265.4 L156.8 270.9 L155.1 276.2 L156.0 283.4 L163.6 281.8 L168.8 278.2 L172.8 273.9 L177.3 269.8 L181.2 265.3 L184.8 260.6 L187.5 255.3 L190.5 250.3 L192.8 244.9 L195.2 239.5 L197.0 233.9 L198.6 228.2 L200.2 222.5 L200.6 216.5 L201.4 210.7 L201.1 204.6 L200.9 198.7 L199.6 192.6 L195.4 186.0 Z" fill="#1D1512" stroke="#C9A961" stroke-width="1.9"/>
      <path d="M195.1 186.0 L194.1 191.4 L192.9 196.9 L191.6 202.3 L190.2 207.7 L188.7 213.0 L187.1 218.4 L185.4 223.6 L183.5 228.9 L181.5 234.1 L179.4 239.3 L177.2 244.4 L174.9 249.4 L172.5 254.4 L170.0 259.4 L167.3 264.3 L164.6 269.1 L161.7 273.9 L158.7 278.6 L155.7 283.2" fill="none" stroke="#C9A961" stroke-width="0.9" opacity="0.4"/>
      <path d="M217.1 174.9 L212.1 180.0 L209.3 185.4 L206.2 190.6 L203.7 195.9 L201.4 201.1 L199.4 206.5 L196.8 211.6 L195.0 217.0 L192.6 222.2 L190.7 227.5 L188.8 232.8 L187.1 238.3 L184.6 243.4 L182.9 248.9 L181.1 254.3 L179.5 260.0 L178.0 265.8 L176.7 271.8 L176.8 278.8 L184.7 276.8 L190.1 273.0 L194.8 268.7 L198.9 263.9 L202.7 258.9 L206.6 253.9 L209.7 248.5 L212.6 243.0 L215.0 237.2 L217.4 231.5 L219.5 225.6 L221.1 219.5 L222.2 213.4 L223.2 207.2 L223.5 200.9 L223.6 194.6 L222.8 188.2 L221.9 181.8 L217.3 174.9 Z" fill="#1D1512" stroke="#C9A961" stroke-width="1.9"/>
      <path d="M217.1 174.9 L216.1 180.7 L215.0 186.5 L213.7 192.3 L212.3 198.1 L210.8 203.8 L209.1 209.4 L207.4 215.1 L205.5 220.7 L203.5 226.2 L201.3 231.7 L199.1 237.2 L196.7 242.6 L194.2 248.0 L191.6 253.3 L188.9 258.5 L186.0 263.7 L183.1 268.8 L180.0 273.9 L176.8 278.8" fill="none" stroke="#C9A961" stroke-width="0.9" opacity="0.4"/>
      <path d="M240.1 165.4 L234.9 170.8 L232.2 176.6 L229.5 182.3 L227.2 188.0 L224.3 193.5 L222.4 199.2 L220.2 204.9 L218.2 210.5 L215.6 216.0 L213.5 221.6 L211.6 227.3 L209.9 233.1 L207.5 238.7 L205.6 244.4 L204.0 250.4 L202.0 256.2 L200.4 262.4 L198.7 268.5 L199.2 276.1 L207.1 273.5 L212.4 269.2 L217.1 264.5 L221.4 259.4 L225.9 254.4 L229.5 248.8 L232.6 243.0 L235.4 237.1 L238.1 231.1 L240.7 225.0 L242.3 218.6 L244.1 212.3 L245.4 205.8 L246.1 199.2 L246.2 192.5 L246.6 185.9 L245.5 179.2 L244.9 172.5 L240.1 165.4 Z" fill="#1D1512" stroke="#C9A961" stroke-width="1.9"/>
      <path d="M240.1 165.4 L239.1 171.6 L238.0 177.7 L236.8 183.8 L235.4 189.9 L233.9 196.0 L232.2 202.0 L230.4 208.0 L228.5 214.0 L226.5 219.9 L224.3 225.8 L222.0 231.6 L219.6 237.4 L217.0 243.1 L214.3 248.7 L211.5 254.3 L208.6 259.8 L205.6 265.3 L202.4 270.7 L199.1 276.0" fill="none" stroke="#C9A961" stroke-width="0.9" opacity="0.4"/>
      <path d="M263.9 157.3 L259.1 163.3 L255.6 169.3 L253.1 175.4 L251.0 181.5 L248.8 187.5 L246.3 193.5 L243.8 199.4 L242.1 205.5 L239.6 211.4 L237.5 217.4 L235.3 223.3 L233.3 229.4 L231.4 235.5 L229.7 241.7 L227.2 247.7 L225.6 254.1 L223.5 260.3 L222.0 266.9 L222.4 274.7 L230.7 271.9 L236.0 267.2 L240.8 262.0 L245.1 256.6 L249.3 251.0 L252.9 245.0 L256.2 239.0 L259.7 232.9 L262.2 226.4 L264.4 219.9 L266.1 213.1 L267.8 206.4 L268.8 199.6 L269.7 192.7 L270.6 185.8 L270.4 178.8 L269.5 171.7 L268.1 164.7 L263.9 157.3 Z" fill="#1D1512" stroke="#C9A961" stroke-width="1.9"/>
      <path d="M263.9 157.3 L263.0 163.9 L261.9 170.4 L260.7 176.9 L259.3 183.3 L257.8 189.8 L256.2 196.1 L254.4 202.5 L252.4 208.8 L250.4 215.1 L248.2 221.3 L245.8 227.5 L243.4 233.6 L240.8 239.7 L238.0 245.7 L235.1 251.6 L232.1 257.5 L229.0 263.3 L225.7 269.0 L222.4 274.7" fill="none" stroke="#C9A961" stroke-width="0.9" opacity="0.4"/>
      <path d="M288.2 150.8 L282.9 157.0 L280.6 163.6 L277.7 170.0 L275.4 176.4 L272.8 182.8 L270.4 189.1 L268.4 195.5 L266.2 201.9 L264.1 208.2 L262.2 214.7 L259.6 220.8 L257.8 227.3 L255.8 233.8 L253.4 240.1 L251.9 246.8 L249.6 253.2 L247.8 259.9 L246.0 266.7 L246.2 274.8 L254.4 271.5 L260.0 266.4 L265.4 261.2 L269.7 255.3 L273.7 249.2 L277.8 243.1 L281.2 236.7 L284.3 230.1 L287.0 223.3 L289.2 216.4 L291.2 209.4 L292.4 202.2 L293.7 195.0 L294.8 187.8 L295.0 180.5 L295.2 173.2 L294.2 165.8 L293.0 158.4 L288.0 150.7 Z" fill="#1D1512" stroke="#C9A961" stroke-width="1.9"/>
      <path d="M288.2 150.8 L287.4 157.6 L286.3 164.5 L285.2 171.4 L283.8 178.2 L282.3 185.0 L280.7 191.7 L278.9 198.4 L277.0 205.1 L274.9 211.7 L272.7 218.3 L270.4 224.9 L267.8 231.3 L265.2 237.8 L262.4 244.1 L259.5 250.4 L256.4 256.7 L253.2 262.8 L249.9 268.9 L246.4 274.9" fill="none" stroke="#C9A961" stroke-width="0.9" opacity="0.4"/>
    </g>
    <!-- primaries (splayed fingers) -->
    <g filter="url(#glow)">
      <path d="M296.5 148.9 L293.2 159.4 L291.6 169.9 L290.3 180.3 L289.2 190.7 L288.3 201.1 L288.0 211.5 L287.1 221.9 L286.0 232.2 L285.1 242.6 L284.7 252.9 L283.6 263.3 L283.2 273.7 L282.0 284.0 L281.5 294.4 L280.9 304.8 L280.2 315.2 L279.5 325.7 L279.7 336.3 L281.4 347.2 L288.4 337.8 L291.8 327.6 L294.5 317.4 L297.5 307.1 L299.5 296.7 L301.7 286.3 L303.6 275.8 L305.0 265.2 L305.7 254.6 L306.6 244.1 L307.1 233.5 L307.5 222.8 L307.3 212.2 L306.6 201.6 L306.2 191.0 L305.3 180.4 L303.9 169.8 L301.4 159.3 L296.7 148.9 Z" fill="#1D1512" stroke="#C9A961" stroke-width="2.1"/>
      <path d="M296.5 148.9 L296.7 159.4 L296.8 169.9 L296.9 180.3 L296.8 190.8 L296.6 201.3 L296.2 211.8 L295.8 222.3 L295.2 232.8 L294.6 243.2 L293.8 253.7 L292.9 264.1 L291.8 274.6 L290.7 285.0 L289.5 295.4 L288.1 305.8 L286.6 316.2 L285.0 326.6 L283.3 336.9 L281.5 347.2" fill="none" stroke="#C9A961" stroke-width="1.0" opacity="0.45"/>
      <path d="M336.2 142.1 L334.6 153.5 L334.9 164.5 L336.1 175.2 L337.2 186.0 L337.7 196.8 L338.9 207.5 L340.1 218.2 L340.7 229.0 L341.8 239.7 L343.3 250.3 L344.1 261.1 L345.4 271.8 L346.6 282.5 L347.7 293.2 L348.8 304.0 L349.8 314.7 L351.3 325.5 L352.8 336.3 L356.8 347.1 L361.3 336.2 L363.3 325.3 L364.5 314.3 L365.1 303.3 L365.8 292.3 L366.0 281.3 L365.7 270.3 L365.0 259.3 L364.1 248.4 L362.9 237.5 L361.6 226.5 L360.3 215.6 L358.1 204.8 L356.3 194.0 L353.4 183.3 L350.5 172.7 L347.4 162.1 L343.1 151.8 L335.9 142.2 Z" fill="#1D1512" stroke="#C9A961" stroke-width="2.1"/>
      <path d="M336.2 142.1 L338.3 152.8 L340.4 163.4 L342.3 174.1 L344.1 184.9 L345.7 195.6 L347.3 206.3 L348.7 217.1 L350.0 227.9 L351.2 238.7 L352.3 249.5 L353.2 260.3 L354.1 271.2 L354.8 282.0 L355.4 292.8 L355.9 303.7 L356.2 314.6 L356.5 325.4 L356.6 336.3 L356.6 347.1" fill="none" stroke="#C9A961" stroke-width="1.0" opacity="0.45"/>
      <path d="M375.9 138.9 L376.1 150.6 L378.5 161.3 L381.3 171.8 L384.0 182.4 L387.3 192.8 L390.2 203.2 L392.7 213.8 L396.0 224.1 L398.9 234.6 L401.5 245.1 L404.4 255.5 L407.6 265.9 L410.9 276.2 L413.4 286.8 L416.2 297.3 L419.6 307.7 L422.8 318.1 L426.5 328.5 L432.2 338.6 L434.6 327.0 L434.9 315.8 L434.2 304.7 L432.6 293.7 L431.6 282.6 L429.3 271.8 L427.5 260.9 L424.7 250.2 L422.2 239.4 L419.0 228.8 L416.1 218.1 L412.2 207.7 L408.9 197.2 L404.8 186.9 L399.9 176.9 L395.5 166.7 L390.0 157.0 L384.5 147.3 L375.9 138.9 Z" fill="#1D1512" stroke="#C9A961" stroke-width="2.1"/>
      <path d="M375.9 138.9 L379.8 149.1 L383.7 159.4 L387.5 169.6 L391.1 179.9 L394.6 190.3 L398.1 200.7 L401.4 211.1 L404.6 221.6 L407.6 232.1 L410.6 242.6 L413.4 253.1 L416.1 263.7 L418.8 274.4 L421.2 285.0 L423.6 295.7 L425.9 306.4 L428.0 317.1 L430.0 327.9 L431.9 338.6" fill="none" stroke="#C9A961" stroke-width="1.0" opacity="0.45"/>
      <path d="M451.6 143.0 L455.4 153.2 L460.8 161.9 L466.4 170.4 L472.3 178.6 L478.0 186.9 L483.9 195.2 L489.9 203.2 L495.9 211.3 L501.5 219.7 L507.6 227.8 L513.2 236.1 L519.1 244.3 L525.1 252.4 L530.8 260.7 L537.0 268.7 L542.9 277.0 L549.3 284.9 L556.0 292.7 L564.4 299.5 L563.2 288.4 L559.9 278.5 L555.4 269.2 L551.4 259.6 L546.6 250.5 L541.4 241.6 L536.2 232.7 L530.5 224.1 L525.0 215.4 L518.8 207.1 L512.5 199.0 L506.1 190.9 L499.2 183.3 L492.4 175.5 L485.5 167.9 L478.1 160.6 L470.2 153.9 L462.2 147.3 L451.8 142.8 Z" fill="#1D1512" stroke="#C9A961" stroke-width="2.1"/>
      <path d="M451.6 143.0 L458.3 150.6 L465.0 158.3 L471.5 166.1 L478.0 174.0 L484.4 181.9 L490.7 189.9 L496.9 197.9 L503.0 206.1 L509.0 214.3 L514.9 222.5 L520.8 230.9 L526.5 239.3 L532.2 247.7 L537.7 256.2 L543.2 264.8 L548.6 273.4 L553.9 282.1 L559.1 290.9 L564.1 299.7" fill="none" stroke="#C9A961" stroke-width="1.0" opacity="0.45"/>
      <path d="M486.0 150.0 L491.1 158.7 L497.3 165.9 L503.6 173.0 L510.1 179.7 L516.7 186.3 L523.4 192.8 L530.3 199.1 L536.9 205.7 L543.6 212.2 L550.0 219.0 L556.5 225.6 L563.4 231.9 L570.3 238.3 L576.9 244.9 L583.9 251.1 L590.8 257.5 L597.8 263.8 L605.1 269.9 L613.9 274.8 L611.6 264.3 L606.6 256.1 L601.4 248.0 L596.3 239.9 L590.4 232.3 L584.2 225.0 L578.2 217.6 L571.6 210.7 L564.8 204.0 L558.2 197.1 L551.2 190.6 L544.2 184.1 L536.7 178.1 L528.8 172.7 L521.3 166.8 L513.3 161.5 L505.0 156.5 L496.6 151.8 L485.8 150.2 Z" fill="#1D1512" stroke="#C9A961" stroke-width="2.1"/>
      <path d="M486.0 150.0 L493.4 155.9 L500.7 161.8 L507.9 167.9 L515.0 174.0 L522.1 180.2 L529.2 186.5 L536.1 192.8 L543.0 199.3 L549.8 205.8 L556.5 212.4 L563.2 219.0 L569.8 225.7 L576.3 232.5 L582.8 239.4 L589.1 246.4 L595.4 253.4 L601.6 260.4 L607.8 267.6 L613.8 274.8" fill="none" stroke="#C9A961" stroke-width="1.0" opacity="0.45"/>
    </g>
    <!-- coverts -->
    <g filter="url(#glow)">
      <path d="M123.5 242.8 L121.2 243.9 L120.8 245.3 L119.7 246.5 L118.6 247.6 L118.3 249.0 L117.5 250.2 L116.7 251.4 L116.4 252.8 L115.9 254.1 L115.6 255.5 L114.9 256.7 L114.5 258.0 L114.1 259.4 L113.6 260.7 L113.1 262.0 L112.7 263.3 L112.5 264.9 L112.8 266.7 L113.1 268.6 L116.1 268.8 L117.3 267.7 L119.1 266.9 L120.0 265.7 L121.0 264.4 L121.9 263.1 L123.0 261.9 L123.5 260.4 L124.1 258.9 L124.9 257.5 L125.2 256.0 L126.0 254.6 L126.1 252.9 L126.6 251.4 L126.1 249.7 L126.2 248.1 L126.2 246.5 L125.7 244.8 L123.1 242.8 Z" fill="#1D1512" stroke="#D9BE8C" stroke-width="1.5"/>
      <path d="M140.5 225.1 L138.5 226.2 L137.6 227.5 L136.6 228.8 L136.2 230.2 L135.1 231.4 L135.1 232.9 L134.3 234.2 L133.5 235.4 L133.0 236.7 L132.8 238.2 L132.1 239.4 L131.7 240.8 L131.4 242.3 L130.6 243.5 L130.7 245.1 L129.9 246.4 L129.7 247.9 L129.7 249.6 L130.2 251.7 L132.9 251.5 L134.5 250.6 L136.1 249.7 L137.0 248.4 L138.5 247.3 L139.2 245.9 L140.1 244.5 L141.0 243.1 L141.7 241.7 L141.9 240.0 L142.4 238.5 L143.0 237.0 L143.0 235.3 L143.7 233.8 L143.8 232.2 L143.1 230.3 L143.1 228.7 L142.5 227.0 L140.4 225.0 Z" fill="#1D1512" stroke="#D9BE8C" stroke-width="1.5"/>
      <path d="M159.5 209.1 L157.7 210.3 L156.5 211.6 L155.9 213.0 L155.4 214.4 L154.7 215.8 L153.8 217.1 L153.1 218.4 L152.5 219.7 L152.3 221.2 L151.9 222.7 L151.0 223.9 L150.8 225.4 L150.4 226.8 L150.0 228.2 L149.4 229.6 L148.9 231.1 L148.7 232.6 L148.6 234.3 L149.6 236.7 L152.1 236.3 L153.7 235.4 L155.4 234.4 L156.4 233.1 L157.2 231.6 L158.5 230.5 L159.0 228.9 L160.1 227.5 L160.6 225.9 L161.4 224.4 L161.4 222.7 L162.0 221.1 L162.3 219.5 L162.2 217.8 L162.7 216.2 L162.3 214.4 L162.3 212.8 L161.5 211.0 L159.9 209.1 Z" fill="#1D1512" stroke="#D9BE8C" stroke-width="1.5"/>
      <path d="M180.2 194.7 L178.4 196.1 L177.4 197.5 L176.6 198.9 L176.0 200.3 L175.0 201.6 L174.3 203.0 L174.2 204.5 L173.1 205.8 L173.2 207.4 L172.4 208.7 L171.6 210.0 L171.3 211.5 L171.0 213.1 L170.9 214.7 L170.1 216.0 L170.2 217.7 L169.9 219.3 L169.5 220.8 L170.4 223.2 L172.8 222.7 L174.7 221.9 L176.0 220.7 L177.4 219.5 L177.9 217.9 L179.4 216.7 L179.8 215.0 L180.9 213.6 L181.5 212.0 L182.1 210.4 L182.4 208.7 L183.0 207.2 L183.1 205.4 L183.3 203.7 L183.3 202.0 L183.0 200.2 L182.7 198.4 L182.1 196.7 L180.5 194.8 Z" fill="#1D1512" stroke="#D9BE8C" stroke-width="1.5"/>
      <path d="M202.3 182.1 L200.5 183.5 L199.1 184.9 L198.7 186.4 L197.8 187.8 L197.0 189.2 L196.5 190.7 L195.9 192.1 L195.4 193.6 L194.8 195.0 L194.6 196.6 L193.9 198.0 L193.7 199.6 L193.1 201.0 L192.9 202.6 L192.7 204.2 L192.3 205.8 L192.2 207.5 L192.0 209.2 L192.3 211.2 L195.3 211.0 L196.7 209.8 L198.5 208.8 L199.3 207.3 L200.3 205.8 L201.8 204.6 L202.1 202.9 L203.0 201.4 L203.9 199.8 L204.4 198.1 L205.0 196.5 L205.3 194.8 L205.4 193.0 L205.4 191.2 L205.5 189.5 L205.3 187.7 L205.0 185.9 L204.2 184.1 L202.5 182.1 Z" fill="#1D1512" stroke="#D9BE8C" stroke-width="1.5"/>
      <path d="M225.6 171.2 L223.7 172.6 L223.1 174.1 L222.3 175.6 L221.5 177.1 L220.6 178.6 L220.3 180.2 L219.8 181.7 L219.1 183.1 L218.3 184.5 L218.2 186.2 L217.3 187.5 L217.1 189.2 L216.7 190.7 L216.6 192.4 L215.8 193.8 L215.6 195.5 L215.5 197.2 L215.2 198.9 L216.3 201.4 L218.6 200.7 L220.6 199.8 L221.7 198.4 L222.8 197.0 L224.3 195.7 L224.8 194.0 L226.1 192.6 L226.4 190.8 L227.5 189.3 L227.7 187.5 L228.2 185.8 L228.7 184.0 L228.6 182.2 L228.6 180.4 L228.9 178.6 L228.4 176.8 L228.0 174.9 L227.9 173.2 L225.6 171.2 Z" fill="#1D1512" stroke="#D9BE8C" stroke-width="1.5"/>
      <path d="M249.9 161.8 L247.9 163.3 L247.4 164.9 L246.5 166.5 L245.5 167.9 L245.0 169.5 L244.7 171.1 L244.2 172.7 L243.8 174.3 L242.7 175.7 L242.7 177.4 L241.8 178.8 L241.6 180.4 L240.8 181.9 L240.5 183.5 L240.2 185.2 L239.8 186.8 L239.6 188.5 L239.7 190.4 L240.7 192.8 L243.3 192.2 L244.6 190.9 L245.9 189.6 L247.3 188.3 L248.3 186.7 L249.5 185.2 L250.3 183.6 L250.8 181.8 L251.5 180.2 L252.4 178.5 L252.8 176.8 L253.1 175.0 L253.2 173.1 L253.6 171.3 L253.2 169.4 L252.8 167.5 L252.4 165.7 L252.0 163.8 L250.1 161.9 Z" fill="#1D1512" stroke="#D9BE8C" stroke-width="1.5"/>
      <path d="M275.0 154.1 L273.4 155.7 L272.3 157.3 L271.6 158.9 L271.1 160.5 L270.2 162.1 L269.4 163.6 L269.4 165.4 L268.4 166.8 L268.0 168.4 L267.9 170.2 L267.0 171.6 L266.7 173.3 L266.4 174.9 L266.1 176.6 L265.7 178.3 L265.5 180.0 L264.9 181.6 L264.7 183.4 L265.6 185.8 L268.5 185.3 L270.0 184.0 L271.3 182.6 L272.8 181.2 L273.6 179.6 L274.7 178.0 L275.4 176.3 L276.1 174.6 L277.2 173.0 L277.4 171.1 L277.6 169.2 L278.0 167.4 L278.4 165.6 L278.7 163.8 L278.2 161.8 L278.2 159.9 L277.9 158.0 L276.9 156.1 L274.9 154.1 Z" fill="#1D1512" stroke="#D9BE8C" stroke-width="1.5"/>
      <path d="M300.6 148.0 L299.0 149.6 L297.7 151.3 L297.3 153.0 L296.2 154.5 L296.2 156.3 L295.5 157.9 L294.8 159.5 L294.0 161.1 L293.8 162.8 L293.2 164.4 L293.0 166.1 L292.5 167.7 L292.2 169.4 L291.4 171.0 L291.3 172.8 L291.4 174.7 L291.0 176.4 L291.0 178.3 L291.5 180.6 L294.2 179.9 L296.0 178.7 L297.1 177.1 L298.5 175.7 L299.7 174.1 L300.6 172.4 L301.0 170.6 L301.9 168.9 L302.9 167.2 L303.2 165.3 L303.5 163.4 L303.5 161.5 L303.7 159.6 L303.9 157.7 L304.0 155.8 L303.7 153.9 L303.5 152.0 L302.4 150.0 L300.3 148.0 Z" fill="#1D1512" stroke="#D9BE8C" stroke-width="1.5"/>
    </g>
    <path d="M116.0 252.2 L121.2 245.5 L126.7 239.0 L132.5 233.1 L138.4 227.3 L144.6 221.4 L151.0 215.8 L157.6 210.5 L164.4 205.2 L171.4 200.6 L178.6 196.0 L185.9 191.2 L193.4 187.0 L201.1 182.9 L208.9 178.7 L216.8 175.3 L224.8 171.6 L233.0 168.0 L241.3 164.7 L249.6 161.8 L258.1 159.2 L266.6 156.6 L275.2 154.0 L283.9 152.0 L292.6 149.7 L301.4 147.8 L310.2 145.9 L319.0 144.8 L327.8 143.1 L336.6 142.3 L345.4 141.1 L354.3 140.3 L363.0 139.6 L371.8 139.0 L380.5 139.0 L389.2 138.9 L397.8 138.9 L406.3 139.0 L414.8 139.1 L423.2 140.0 L431.5 140.4 L439.6 141.6 L447.7 142.3 L455.6 143.6 L463.5 145.1 L471.1 146.3 L478.6 148.2 L486.0 149.8" fill="none" stroke="#F0DCAE" stroke-width="3.0" filter="url(#glow)"/>
    <circle cx="296.5" cy="148.9" r="4.2" fill="#1D1512" stroke="#F0DCAE" stroke-width="1.8" filter="url(#glow)"/>
    <!-- flagged gap: missing primary finger -->
    <path d="M414.6 139.3 L416.9 150.4 L421.3 160.1 L425.3 170.1 L429.7 179.8 L434.7 189.2 L439.0 198.9 L443.7 208.4 L448.1 218.1 L452.7 227.6 L457.2 237.2 L462.1 246.6 L466.4 256.3 L471.4 265.7 L475.8 275.3 L480.3 285.0 L485.2 294.5 L490.1 304.0 L495.3 313.4 L502.2 322.2 L503.5 310.3 L501.5 299.6 L499.2 288.9 L496.2 278.5 L492.4 268.4 L488.9 258.1 L485.1 247.9 L481.0 237.9 L476.8 227.9 L471.6 218.4 L466.9 208.7 L461.7 199.1 L456.4 189.7 L450.8 180.4 L444.3 171.7 L438.5 162.5 L431.4 154.2 L424.2 146.0 L414.6 139.3 Z" fill="none" stroke="#C9A961" stroke-width="1.5" opacity="0.32" stroke-dasharray="5 5"/>
    <circle cx="502.5" cy="322.1" r="18" fill="none" stroke="#F0DCAE" stroke-width="1.5" opacity="0.9" stroke-dasharray="3 3"/>
    <path d="M515.5 334.1 L532.5 376.1" stroke="#F0DCAE" stroke-width="1.2" opacity="0.7" fill="none"/>
    <circle cx="532.5" cy="376.1" r="2.2" fill="#F0DCAE" opacity="0.9"/>
    <g>
      <use href="#glint" x="486.0" y="150.0" class="tw d1"/>
      <use href="#glint" x="296.5" y="148.9" class="tw d2"/>
      <use href="#glint" x="502.5" y="322.1" class="tw d3"/>
    </g>
  </g>

  <g font-family="ui-monospace, monospace" opacity="0.6">
    <text x="500" y="410" text-anchor="end" font-size="11" fill="#D9BE8C" letter-spacing="0.5">canary</text>
    <text x="500" y="424" text-anchor="end" font-size="8" fill="#C9A961" letter-spacing="1.5">CONTENT GAP AUDIT</text>
  </g>

  <style>
    .tw{transform-box:fill-box;transform-origin:center;animation:tw 4.2s ease-in-out infinite}
    .d1{animation-delay:0s}.d2{animation-delay:1.2s}.d3{animation-delay:2.1s}
    @keyframes tw{0%,100%{opacity:.35}50%{opacity:1}}
    @media (prefers-reduced-motion:reduce){.tw{animation:none}}
  </style>
</svg>