<svg xmlns="http://www.w3.org/2000/svg" viewBox="0 0 520 440" fill="none" role="img" aria-label="">
<defs>
<radialGradient id="bgglow" cx="50%" cy="44%" r="60%"><stop offset="0" stop-color="#D9BE8C" stop-opacity="0.11"/><stop offset="55%" stop-color="#C9A961" stop-opacity="0.04"/><stop offset="100%" stop-color="#C9A961" stop-opacity="0"/></radialGradient>
<filter id="glow" x="-20%" y="-20%" width="140%" height="140%"><feGaussianBlur stdDeviation="1.3" result="b"/><feMerge><feMergeNode in="b"/><feMergeNode in="SourceGraphic"/></feMerge></filter>
<path id="glint" d="M0,-6 L1.2,-1.2 6,0 1.2,1.2 0,6 -1.2,1.2 -6,0 -1.2,-1.2 Z" fill="#F0DCAE"/>
</defs>
<style>.tw{transform-box:fill-box;transform-origin:center;animation:tw 4.2s ease-in-out infinite}.d1{animation-delay:.6s}.d2{animation-delay:1.4s}.d3{animation-delay:2.3s}@keyframes tw{0%,100%{opacity:.35}50%{opacity:1}}@media (prefers-reduced-motion:reduce){.tw{animation:none}}</style>
<rect x="0" y="0" width="520" height="440" fill="url(#bgglow)"/>
<g stroke="#C9A961" stroke-width="1" vector-effect="non-scaling-stroke"><line x1="0" y1="0" x2="0" y2="440" opacity="0.05"/><line x1="40" y1="0" x2="40" y2="440" opacity="0.05"/><line x1="80" y1="0" x2="80" y2="440" opacity="0.05"/><line x1="120" y1="0" x2="120" y2="440" opacity="0.05"/><line x1="160" y1="0" x2="160" y2="440" opacity="0.05"/><line x1="200" y1="0" x2="200" y2="440" opacity="0.05"/><line x1="240" y1="0" x2="240" y2="440" opacity="0.05"/><line x1="280" y1="0" x2="280" y2="440" opacity="0.05"/><line x1="320" y1="0" x2="320" y2="440" opacity="0.05"/><line x1="360" y1="0" x2="360" y2="440" opacity="0.05"/><line x1="400" y1="0" x2="400" y2="440" opacity="0.05"/><line x1="440" y1="0" x2="440" y2="440" opacity="0.05"/><line x1="480" y1="0" x2="480" y2="440" opacity="0.05"/><line x1="520" y1="0" x2="520" y2="440" opacity="0.05"/><line x1="0" y1="0" x2="520" y2="0" opacity="0.05"/><line x1="0" y1="40" x2="520" y2="40" opacity="0.05"/><line x1="0" y1="80" x2="520" y2="80" opacity="0.05"/><line x1="0" y1="120" x2="520" y2="120" opacity="0.05"/><line x1="0" y1="160" x2="520" y2="160" opacity="0.05"/><line x1="0" y1="200" x2="520" y2="200" opacity="0.05"/><line x1="0" y1="240" x2="520" y2="240" opacity="0.05"/><line x1="0" y1="280" x2="520" y2="280" opacity="0.05"/><line x1="0" y1="320" x2="520" y2="320" opacity="0.05"/><line x1="0" y1="360" x2="520" y2="360" opacity="0.05"/><line x1="0" y1="400" x2="520" y2="400" opacity="0.05"/><line x1="0" y1="440" x2="520" y2="440" opacity="0.05"/><line x1="20" y1="0" x2="20" y2="440" opacity="0.03"/><line x1="60" y1="0" x2="60" y2="440" opacity="0.03"/><line x1="100" y1="0" x2="100" y2="440" opacity="0.03"/><line x1="140" y1="0" x2="140" y2="440" opacity="0.03"/><line x1="180" y1="0" x2="180" y2="440" opacity="0.03"/><line x1="220" y1="0" x2="220" y2="440" opacity="0.03"/><line x1="260" y1="0" x2="260" y2="440" opacity="0.03"/><line x1="300" y1="0" x2="300" y2="440" opacity="0.03"/><line x1="340" y1="0" x2="340" y2="440" opacity="0.03"/><line x1="380" y1="0" x2="380" y2="440" opacity="0.03"/><line x1="420" y1="0" x2="420" y2="440" opacity="0.03"/><line x1="460" y1="0" x2="460" y2="440" opacity="0.03"/><line x1="500" y1="0" x2="500" y2="440" opacity="0.03"/><line x1="0" y1="20" x2="520" y2="20" opacity="0.03"/><line x1="0" y1="60" x2="520" y2="60" opacity="0.03"/><line x1="0" y1="100" x2="520" y2="100" opacity="0.03"/><line x1="0" y1="140" x2="520" y2="140" opacity="0.03"/><line x1="0" y1="180" x2="520" y2="180" opacity="0.03"/><line x1="0" y1="220" x2="520" y2="220" opacity="0.03"/><line x1="0" y1="260" x2="520" y2="260" opacity="0.03"/><line x1="0" y1="300" x2="520" y2="300" opacity="0.03"/><line x1="0" y1="340" x2="520" y2="340" opacity="0.03"/><line x1="0" y1="380" x2="520" y2="380" opacity="0.03"/><line x1="0" y1="420" x2="520" y2="420" opacity="0.03"/></g>
<g stroke="#C9A961" stroke-width="1.2" opacity="0.5" vector-effect="non-scaling-stroke"><line x1="13" y1="20" x2="27" y2="20"/><line x1="20" y1="13" x2="20" y2="27"/><line x1="493" y1="20" x2="507" y2="20"/><line x1="500" y1="13" x2="500" y2="27"/><line x1="13" y1="420" x2="27" y2="420"/><line x1="20" y1="413" x2="20" y2="427"/><line x1="493" y1="420" x2="507" y2="420"/><line x1="500" y1="413" x2="500" y2="427"/></g>
<line x1="260" y1="40" x2="260" y2="392" stroke="#C9A961" stroke-width="1" stroke-dasharray="10 3 2 3" opacity="0.4" vector-effect="non-scaling-stroke"/>

<g filter="url(#glow)" stroke-linecap="round" stroke-linejoin="round" vector-effect="non-scaling-stroke">
<path d="M132.0,112.0 L174.7,112.0 L217.3,112.0 L260.0,112.2 L302.7,112.0 L345.3,112.0 L388.0,112.0" stroke="#D9BE8C" stroke-width="2.2" opacity="1.0" fill="none" />
<path d="M132.0,100.0 L174.7,100.0 L217.3,99.8 L260.0,100.0 L302.7,100.1 L345.3,100.2 L388.0,100.0" stroke="#D9BE8C" stroke-width="2.2" opacity="1.0" fill="none" />
<path d="M132.0,112.0 L131.9,110.0 L131.9,108.0 L131.9,106.0 L132.1,104.0 L132.1,102.0 L132.0,100.0" stroke="#C9A961" stroke-width="1.4" opacity="0.8" fill="none" />
<path d="M388.0,112.0 L387.9,110.0 L388.2,108.0 L388.1,106.0 L388.0,104.0 L388.0,102.0 L388.0,100.0" stroke="#C9A961" stroke-width="1.4" opacity="0.8" fill="none" />
<path d="M150.0,100.0 L150.1,106.0 L150.0,112.0" stroke="#C9A961" stroke-width="1.1" opacity="0.5" fill="none" />
<path d="M180.0,100.0 L180.1,106.0 L180.0,112.0" stroke="#C9A961" stroke-width="1.1" opacity="0.5" fill="none" />
<path d="M210.0,100.0 L210.0,106.0 L210.0,112.0" stroke="#C9A961" stroke-width="1.1" opacity="0.5" fill="none" />
<path d="M240.0,100.0 L240.1,106.0 L240.0,112.0" stroke="#C9A961" stroke-width="1.1" opacity="0.5" fill="none" />
<path d="M270.0,100.0 L270.1,106.0 L270.0,112.0" stroke="#C9A961" stroke-width="1.1" opacity="0.5" fill="none" />
<path d="M300.0,100.0 L300.0,106.0 L300.0,112.0" stroke="#C9A961" stroke-width="1.1" opacity="0.5" fill="none" />
<path d="M330.0,100.0 L330.1,106.0 L330.0,112.0" stroke="#C9A961" stroke-width="1.1" opacity="0.5" fill="none" />
<path d="M360.0,100.0 L360.0,106.0 L360.0,112.0" stroke="#C9A961" stroke-width="1.1" opacity="0.5" fill="none" />
<path d="M128.0,100.0 L149.0,93.5 L170.1,87.2 L191.0,80.5 L212.0,74.1 L233.0,67.5 L254.0,61.0" stroke="#D9BE8C" stroke-width="2.2" opacity="1.0" fill="none" />
<path d="M266.0,61.0 L287.0,67.6 L308.0,74.0 L329.0,80.4 L349.9,87.2 L370.9,93.7 L392.0,100.0" stroke="#D9BE8C" stroke-width="2.2" opacity="1.0" fill="none" />
<path d="M128.0,100.0 L172.0,100.1 L216.0,100.1 L260.0,99.9 L304.0,99.9 L348.0,99.9 L392.0,100.0" stroke="#D9BE8C" stroke-width="1.8" opacity="0.9" fill="none" />
<path d="M254.0,61.0 L260.0,60.9 L266.0,61.0" stroke="#C9A961" stroke-width="1.2" opacity="0.7" fill="none" />
<path d="M160.2,356.0 L159.7,334.5 L159.7,313.1 L159.3,291.6 L159.6,270.2 L159.7,248.7 L159.5,227.3 L160.1,205.8 L161.2,184.4 L161.7,162.9 L162.9,141.5 L163.4,120.0" stroke="#C9A961" stroke-width="1.9" opacity="0.85" fill="none" />
<path d="M189.8,356.0 L190.3,334.5 L190.7,313.1 L190.5,291.6 L190.4,270.2 L190.4,248.7 L190.4,227.3 L189.8,205.8 L188.8,184.4 L188.1,162.9 L187.2,141.5 L186.2,120.0" stroke="#C9A961" stroke-width="1.9" opacity="0.85" fill="none" />
<path d="M168.0,134.0 L167.9,164.6 L168.1,195.1 L168.0,225.7 L168.0,256.3 L168.1,286.9 L167.9,317.4 L168.0,348.0" stroke="#C9A961" stroke-width="1.0" opacity="0.4" fill="none" />
<path d="M175.0,134.0 L175.1,164.6 L175.0,195.1 L175.1,225.7 L175.0,256.3 L175.1,286.9 L175.1,317.4 L175.0,348.0" stroke="#C9A961" stroke-width="1.0" opacity="0.4" fill="none" />
<path d="M182.0,134.0 L181.8,164.6 L181.9,195.1 L182.1,225.7 L181.9,256.3 L182.1,286.9 L182.0,317.4 L182.0,348.0" stroke="#C9A961" stroke-width="1.0" opacity="0.4" fill="none" />
<path d="M161.7,168.0 L170.6,168.1 L179.4,168.0 L188.3,168.0" stroke="#C9A961" stroke-width="1.0" opacity="0.35" fill="none" />
<path d="M162.3,210.0 L170.8,209.9 L179.2,210.1 L187.7,210.0" stroke="#C9A961" stroke-width="1.0" opacity="0.35" fill="none" />
<path d="M163.0,252.0 L171.0,251.9 L179.0,251.9 L187.0,252.0" stroke="#C9A961" stroke-width="1.0" opacity="0.35" fill="none" />
<path d="M163.6,294.0 L171.2,294.1 L178.8,294.0 L186.4,294.0" stroke="#C9A961" stroke-width="1.0" opacity="0.35" fill="none" />
<path d="M164.2,336.0 L171.4,335.9 L178.6,335.9 L185.8,336.0" stroke="#C9A961" stroke-width="1.0" opacity="0.35" fill="none" />
<path d="M163.0,120.0 L161.2,116.7 L159.7,113.3 L158.0,110.0" stroke="#C9A961" stroke-width="1.9" opacity="0.85" fill="none" />
<path d="M187.0,120.0 L188.6,116.6 L190.4,113.3 L192.0,110.0" stroke="#C9A961" stroke-width="1.9" opacity="0.85" fill="none" />
<path d="M157.0,110.0 L193.0,110.0 L193.0,102.0 L157.0,102.0 Z" stroke="#C9A961" stroke-width="1.9" opacity="0.85" fill="none" />
<path d="M158.0,356.0 L163.7,356.0 L169.3,356.0 L175.0,356.2 L180.7,356.0 L186.3,356.0 L192.0,356.0" stroke="#C9A961" stroke-width="1.9" opacity="0.85" fill="none" />
<path d="M154.0,364.0 L196.0,364.0 L196.0,372.0 L154.0,372.0 Z" stroke="#C9A961" stroke-width="1.9" opacity="0.85" fill="none" />
<path d="M245.2,356.0 L244.5,334.5 L244.3,313.1 L244.6,291.6 L244.5,270.2 L244.4,248.7 L244.7,227.3 L245.5,205.8 L246.2,184.4 L246.6,162.9 L247.8,141.5 L248.7,120.0" stroke="#D9BE8C" stroke-width="2.2" opacity="1.0" fill="none" />
<path d="M275.1,356.0 L275.2,334.5 L275.3,313.1 L275.4,291.6 L275.9,270.2 L275.3,248.7 L275.3,227.3 L274.5,205.8 L274.2,184.4 L273.3,162.9 L272.3,141.5 L271.3,120.0" stroke="#D9BE8C" stroke-width="2.2" opacity="1.0" fill="none" />
<path d="M253.0,134.0 L252.9,164.6 L253.1,195.1 L253.1,225.7 L253.0,256.3 L252.9,286.9 L253.0,317.4 L253.0,348.0" stroke="#C9A961" stroke-width="1.0" opacity="0.4" fill="none" />
<path d="M260.0,134.0 L260.1,164.6 L259.9,195.1 L260.1,225.7 L260.2,256.3 L260.1,286.9 L260.0,317.4 L260.0,348.0" stroke="#C9A961" stroke-width="1.0" opacity="0.4" fill="none" />
<path d="M267.0,134.0 L267.1,164.6 L267.1,195.1 L267.0,225.7 L267.0,256.3 L267.1,286.9 L267.0,317.4 L267.0,348.0" stroke="#C9A961" stroke-width="1.0" opacity="0.4" fill="none" />
<path d="M246.7,168.0 L255.6,168.1 L264.4,168.1 L273.3,168.0" stroke="#C9A961" stroke-width="1.0" opacity="0.35" fill="none" />
<path d="M247.3,210.0 L255.8,210.0 L264.2,210.0 L272.7,210.0" stroke="#C9A961" stroke-width="1.0" opacity="0.35" fill="none" />
<path d="M248.0,252.0 L256.0,252.0 L264.0,251.9 L272.0,252.0" stroke="#C9A961" stroke-width="1.0" opacity="0.35" fill="none" />
<path d="M248.6,294.0 L256.2,293.9 L263.8,293.9 L271.4,294.0" stroke="#C9A961" stroke-width="1.0" opacity="0.35" fill="none" />
<path d="M249.2,336.0 L256.4,336.1 L263.6,336.1 L270.8,336.0" stroke="#C9A961" stroke-width="1.0" opacity="0.35" fill="none" />
<path d="M248.0,120.0 L246.5,116.6 L244.5,113.4 L243.0,110.0" stroke="#D9BE8C" stroke-width="2.2" opacity="1.0" fill="none" />
<path d="M272.0,120.0 L273.7,116.7 L275.3,113.3 L277.0,110.0" stroke="#D9BE8C" stroke-width="2.2" opacity="1.0" fill="none" />
<path d="M242.0,110.0 L278.0,110.0 L278.0,102.0 L242.0,102.0 Z" stroke="#D9BE8C" stroke-width="2.2" opacity="1.0" fill="none" />
<path d="M243.0,356.0 L248.7,356.1 L254.3,355.9 L260.0,356.2 L265.7,355.8 L271.3,356.0 L277.0,356.0" stroke="#D9BE8C" stroke-width="2.2" opacity="1.0" fill="none" />
<path d="M239.0,364.0 L281.0,364.0 L281.0,372.0 L239.0,372.0 Z" stroke="#D9BE8C" stroke-width="2.2" opacity="1.0" fill="none" />
<path d="M330.1,356.0 L330.0,334.5 L329.6,313.1 L329.5,291.6 L329.5,270.2 L329.8,248.7 L329.7,227.3 L330.4,205.8 L331.2,184.4 L331.9,162.9 L332.5,141.5 L333.7,120.0" stroke="#C9A961" stroke-width="1.9" opacity="0.85" fill="none" />
<path d="M360.2,356.0 L360.3,334.5 L360.6,313.1 L360.6,291.6 L360.7,270.2 L360.6,248.7 L359.9,227.3 L359.8,205.8 L359.3,184.4 L358.5,162.9 L357.5,141.5 L356.4,120.0" stroke="#C9A961" stroke-width="1.9" opacity="0.85" fill="none" />
<path d="M338.0,134.0 L337.9,164.6 L338.0,195.1 L338.0,225.7 L337.9,256.3 L338.1,286.9 L337.9,317.4 L338.0,348.0" stroke="#C9A961" stroke-width="1.0" opacity="0.4" fill="none" />
<path d="M345.0,134.0 L345.2,164.6 L345.0,195.1 L345.0,225.7 L345.1,256.3 L344.9,286.9 L345.0,317.4 L345.0,348.0" stroke="#C9A961" stroke-width="1.0" opacity="0.4" fill="none" />
<path d="M352.0,134.0 L352.0,164.6 L351.9,195.1 L352.1,225.7 L352.2,256.3 L352.1,286.9 L351.9,317.4 L352.0,348.0" stroke="#C9A961" stroke-width="1.0" opacity="0.4" fill="none" />
<path d="M331.7,168.0 L340.6,167.9 L349.4,167.9 L358.3,168.0" stroke="#C9A961" stroke-width="1.0" opacity="0.35" fill="none" />
<path d="M332.3,210.0 L340.8,210.1 L349.2,210.0 L357.7,210.0" stroke="#C9A961" stroke-width="1.0" opacity="0.35" fill="none" />
<path d="M333.0,252.0 L341.0,252.0 L349.0,252.1 L357.0,252.0" stroke="#C9A961" stroke-width="1.0" opacity="0.35" fill="none" />
<path d="M333.6,294.0 L341.2,294.0 L348.8,294.0 L356.4,294.0" stroke="#C9A961" stroke-width="1.0" opacity="0.35" fill="none" />
<path d="M334.2,336.0 L341.4,335.9 L348.6,336.0 L355.8,336.0" stroke="#C9A961" stroke-width="1.0" opacity="0.35" fill="none" />
<path d="M333.0,120.0 L331.4,116.6 L329.8,113.3 L328.0,110.0" stroke="#C9A961" stroke-width="1.9" opacity="0.85" fill="none" />
<path d="M357.0,120.0 L358.8,116.7 L360.3,113.3 L362.0,110.0" stroke="#C9A961" stroke-width="1.9" opacity="0.85" fill="none" />
<path d="M327.0,110.0 L363.0,110.0 L363.0,102.0 L327.0,102.0 Z" stroke="#C9A961" stroke-width="1.9" opacity="0.85" fill="none" />
<path d="M328.0,356.0 L333.7,356.0 L339.3,355.9 L345.0,355.9 L350.7,356.0 L356.3,356.1 L362.0,356.0" stroke="#C9A961" stroke-width="1.9" opacity="0.85" fill="none" />
<path d="M324.0,364.0 L366.0,364.0 L366.0,372.0 L324.0,372.0 Z" stroke="#C9A961" stroke-width="1.9" opacity="0.85" fill="none" />
<path d="M96.0,372.0 L150.7,372.2 L205.3,372.1 L260.0,372.2 L314.7,371.9 L369.3,371.9 L424.0,372.0" stroke="#D9BE8C" stroke-width="2.0" opacity="0.9" fill="none" />
<path d="M108.0,382.0 L158.7,382.0 L209.3,381.9 L260.0,381.9 L310.7,382.0 L361.3,382.1 L412.0,382.0" stroke="#C9A961" stroke-width="1.5" opacity="0.7" fill="none" />
<path d="M120.0,392.0 L166.7,392.0 L213.3,391.9 L260.0,392.2 L306.7,392.2 L353.3,392.0 L400.0,392.0" stroke="#C9A961" stroke-width="1.3" opacity="0.55" fill="none" />
</g>
<g stroke="#C9A961" stroke-width="1" opacity="0.5" vector-effect="non-scaling-stroke"><line x1="86" y1="100" x2="86" y2="372"/><path d="M83,105 L86,100 L89,105" fill="none"/><path d="M83,367 L86,372 L89,367" fill="none"/></g>
<g font-family="ui-monospace,Menlo,monospace"><rect x="350" y="396" width="150" height="28" rx="2" stroke="#C9A961" stroke-width="1" opacity="0.55" fill="none"/><line x1="424" y1="396" x2="424" y2="424" stroke="#C9A961" stroke-width="1" opacity="0.45"/><text x="358" y="408" font-size="12" font-weight="700" letter-spacing="2" fill="#D9BE8C">delphi</text><text x="358" y="419" font-size="7" letter-spacing="1.2" fill="#C9A961" opacity="0.85">ATTRIBUTION AUDIT</text><text x="431" y="408" font-size="7" letter-spacing="0.5" fill="#C9A961" opacity="0.8">ELEV.</text><text x="431" y="419" font-size="7" letter-spacing="0.5" fill="#C9A961" opacity="0.8">A-A</text></g>
<use href="#glint" transform="translate(260,60) scale(0.6)" class="tw"/>
<use href="#glint" transform="translate(175,106) scale(0.45)" class="tw d2"/>
<use href="#glint" transform="translate(345,106) scale(0.45)" class="tw d1"/>
<use href="#glint" transform="translate(388,104) scale(0.4)" class="tw d3"/>
</svg>